<?xml version="1.0" encoding="UTF-8" standalone="no"?>
<svg
   id="Layer_1"
   data-name="Layer 1"
   viewBox="0 0 200 200"
   version="1.1"
   sodipodi:docname="email.svg"
   width="200"
   height="200"
   inkscape:version="1.1.1 (eb90963e84, 2021-10-02)"
   xmlns:inkscape="http://www.inkscape.org/namespaces/inkscape"
   xmlns:sodipodi="http://sodipodi.sourceforge.net/DTD/sodipodi-0.dtd"
   xmlns="http://www.w3.org/2000/svg"
   xmlns:svg="http://www.w3.org/2000/svg"
   xmlns:rdf="http://www.w3.org/1999/02/22-rdf-syntax-ns#"
   xmlns:cc="http://creativecommons.org/ns#"
   xmlns:dc="http://purl.org/dc/elements/1.1/">
  <defs
     id="defs9" />
  <sodipodi:namedview
     id="namedview7"
     pagecolor="#ffffff"
     bordercolor="#666666"
     borderopacity="1.0"
     inkscape:pageshadow="2"
     inkscape:pageopacity="0.0"
     inkscape:pagecheckerboard="true"
     showgrid="false"
     inkscape:zoom="1.7130534"
     inkscape:cx="52.537766"
     inkscape:cy="134.55506"
     inkscape:window-width="1920"
     inkscape:window-height="1019"
     inkscape:window-x="0"
     inkscape:window-y="30"
     inkscape:window-maximized="1"
     inkscape:current-layer="Layer_1" />
  <title
     id="title2">email-symbol</title>
  <path
     d="M 171.12845,52.067649 131.3941,11.447968 V 11.043711 H 24.237229 v 65.505705 0 l 55.932097,49.480984 0.245174,0.22638 18.878308,16.6877 76.232402,-65.812935 V 60.961289 l -4.31504,-8.87747 z m -62.50272,-3.913202 0.14709,-0.662981 0.91532,-3.994052 h 11.16354 l -6.42354,29.979654 c -0.11442,0.533618 -0.22883,1.018727 -0.31055,1.455323 v 0 a 15.266096,15.103019 0 0 0 -0.2942,2.296177 2.3373144,2.3123465 0 0 0 0.47399,1.520002 1.6344856,1.6170256 0 0 0 1.17684,0.53362 c 1.52007,0 3.49779,-0.986386 5.90048,-2.942987 a 26.233493,25.95326 0 0 0 6.29277,-8.085128 24.827836,24.562618 0 0 0 0.76822,-20.552396 22.65397,22.411973 0 0 0 -5.55726,-7.697041 26.15177,25.872409 0 0 0 -8.98967,-5.09363 36.743237,36.350735 0 0 0 -12.11153,-1.843409 42.284142,41.83245 0 0 0 -12.634578,1.794898 31.856124,31.515827 0 0 0 -10.052086,5.158312 28.538118,28.233266 0 0 0 -7.273461,8.21449 36.187512,35.800946 0 0 0 -3.922765,9.443429 42.03897,41.589898 0 0 0 -1.356624,10.575347 30.009156,29.68859 0 0 0 2.86035,13.146417 26.642115,26.357516 0 0 0 8.401256,9.993219 34.324198,33.957537 0 0 0 13.337403,5.740441 56.438788,55.835893 0 0 0 17.652435,0.679151 41.712072,41.266492 0 0 0 13.23935,-3.476606 25.645079,25.371131 0 0 0 9.20215,-7.276615 h 9.00602 a 29.649569,29.332844 0 0 1 -5.7207,8.085128 33.196402,32.841789 0 0 1 -8.2705,5.91832 42.905246,42.44692 0 0 1 -10.60782,3.65446 60.296173,59.652072 0 0 1 -12.81436,1.24512 59.495276,58.85973 0 0 1 -18.698519,-2.70043 38.263309,37.854569 0 0 1 -14.023887,-7.777894 33.212747,32.857959 0 0 1 -8.613738,-12.127692 41.254417,40.813725 0 0 1 -2.89304,-15.555786 46.272287,45.777993 0 0 1 3.007454,-16.768556 38.475792,38.064782 0 0 1 22.392453,-22.363463 47.841394,47.330338 0 0 1 17.979347,-3.234051 44.131111,43.65969 0 0 1 14.71037,2.328517 32.575298,32.227319 0 0 1 11.44139,6.742997 29.616879,29.300503 0 0 1 7.30615,10.316623 34.324198,33.957537 0 0 1 2.50077,13.065567 31.267709,30.933699 0 0 1 -2.02676,10.963432 31.659985,31.321784 0 0 1 -5.81877,9.702154 28.194876,27.893691 0 0 1 -8.8916,6.775336 24.615353,24.352405 0 0 1 -11.04912,2.538731 10.084776,9.9770477 0 0 1 -5.31208,-1.164258 5.68801,5.627249 0 0 1 -2.50077,-3.686819 19.613827,19.404307 0 0 1 -1.99407,1.617026 17.341892,17.156641 0 0 1 -1.732555,1.099577 15.511268,15.345573 0 0 1 -4.723665,1.730218 15.772786,15.604296 0 0 1 -9.267532,-0.889365 15.331475,15.1677 0 0 1 -7.159047,-6.080015 19.613827,19.404307 0 0 1 -2.762281,-10.607688 31.954193,31.612849 0 0 1 2.844005,-12.936204 27.116116,26.826454 0 0 1 8.172427,-10.413645 18.894653,18.692815 0 0 1 11.9154,-4.058734 12.193263,12.063011 0 0 1 10.885678,5.368525 l 0.19613,0.307234 z M 85.514094,69.806419 a 12.45478,12.321734 0 0 0 2.108486,7.697042 6.701391,6.6298048 0 0 0 5.524562,2.684262 9.3982923,9.297897 0 0 0 6.995598,-3.23405 16.344856,16.170256 0 0 0 1.63449,-1.988942 17.341892,17.156641 0 0 0 0.98069,-1.503833 22.343418,22.104739 0 0 0 1.96138,-4.43065 30.581226,30.254549 0 0 0 1.63448,-9.152366 v -0.113191 a 17.717824,17.528557 0 0 0 -0.098,-1.875749 12.225951,12.09535 0 0 0 -0.42496,-2.102135 9.6761549,9.5727914 0 0 0 -1.63449,-3.120859 6.8321499,6.7591669 0 0 0 -2.48442,-1.988941 7.7801514,7.6970416 0 0 0 -3.268972,-0.67915 9.3819474,9.2817267 0 0 0 -6.701391,2.878304 18.535067,18.33707 0 0 0 -4.54387,7.341298 v 0 0 a 29.289983,28.977099 0 0 0 -1.634486,9.475769 z m 98.902736,-0.420426 a 5.8678033,5.8051218 0 0 1 3.97179,-1.503833 6.5379425,6.4681023 0 0 1 3.36703,0.970214 8.3195317,8.2306601 0 0 1 2.05946,1.730218 11.539469,11.416201 0 0 1 2.76228,6.888528 v 114.22669 a 9.3329128,9.2332159 0 0 1 -2.71324,6.46811 v 0 a 9.2675334,9.168535 0 0 1 -6.53795,2.68425 H 13.17176 a 9.3329128,9.2332159 0 0 1 -6.5379417,-2.68425 v 0 A 9.1858091,9.0876837 0 0 1 3.9205726,191.69781 V 77.47112 a 11.604848,11.480882 0 0 1 2.8276598,-6.98555 8.9896708,8.8936406 0 0 1 2.0594519,-1.617025 6.5379425,6.4681023 0 0 1 3.2689717,-0.937876 5.8678033,5.8051218 0 0 1 3.268971,0.921705 V 6.5968909 A 4.4784906,4.4306501 0 0 1 19.758738,2.1662408 H 132.86515 a 4.429456,4.3821393 0 0 1 3.43241,1.6170255 l 46.82802,47.8477857 a 4.429456,4.3821393 0 0 1 1.2749,3.072349 v 0 1.27745 c 0,0.177874 0,0.355746 0,0.549789 0,0.194043 0,0.355746 0,0.533618 V 69.402163 Z M 96.285354,152.12919 77.292632,135.34446 12.877554,191.19652 v 0.50129 a 0.27786255,0.27489434 0 0 0 0,0.21022 v 0 a 0.35958683,0.35574562 0 0 0 0.212483,0 H 187.30986 a 0.35958683,0.35574562 0 0 0 0.21249,0 v 0 a 0.27786255,0.27489434 0 0 0 0,-0.21022 v -0.33958 l -65.19963,-56.59589 -20.10418,17.3992 v 0 a 4.4621457,4.4144798 0 0 1 -5.916841,0 z M 70.574896,129.49083 12.877554,78.408996 V 179.44076 L 70.574896,129.40998 Z M 187.60407,179.71565 V 78.360485 l -58.49824,50.564385 58.49824,50.70992 z"
     id="path4"
     style="stroke-width:1.62573;stroke:#ffffff;fill:#ffffff" />
  <metadata
     id="metadata826">
    <rdf:RDF>
      <cc:Work
         rdf:about="">
        <dc:title>email-symbol</dc:title>
      </cc:Work>
    </rdf:RDF>
  </metadata>
</svg>
