<?xml version="1.0" encoding="UTF-8" standalone="no"?>
<!-- Generator: Adobe Illustrator 19.1.0, SVG Export Plug-In . SVG Version: 6.00 Build 0)  -->

<svg
   version="1.1"
   id="Capa_1"
   x="0px"
   y="0px"
   viewBox="0 0 200 200"
   xml:space="preserve"
   sodipodi:docname="phone.svg"
   width="200"
   height="200"
   inkscape:version="1.1.1 (eb90963e84, 2021-10-02)"
   xmlns:inkscape="http://www.inkscape.org/namespaces/inkscape"
   xmlns:sodipodi="http://sodipodi.sourceforge.net/DTD/sodipodi-0.dtd"
   xmlns="http://www.w3.org/2000/svg"
   xmlns:svg="http://www.w3.org/2000/svg"><defs
   id="defs45">
	

		
		
		
	</defs><sodipodi:namedview
   id="namedview43"
   pagecolor="#ffffff"
   bordercolor="#666666"
   borderopacity="1.0"
   inkscape:pageshadow="2"
   inkscape:pageopacity="0.0"
   inkscape:pagecheckerboard="false"
   showgrid="false"
   inkscape:zoom="1"
   inkscape:cx="188"
   inkscape:cy="286.5"
   inkscape:window-width="1920"
   inkscape:window-height="1019"
   inkscape:window-x="0"
   inkscape:window-y="30"
   inkscape:window-maximized="1"
   inkscape:current-layer="Capa_1" />
<path
   d="m 165.0845,117.81695 c -4.134,-4.30447 -9.12035,-6.60587 -14.40503,-6.60587 -5.24206,0 -10.27104,2.25878 -14.57549,6.56324 l -13.46743,13.4248 c -1.10808,-0.59666 -2.21615,-1.1507 -3.28161,-1.70473 -1.53426,-0.76714 -2.98329,-1.49165 -4.21922,-2.25878 C 102.52066,119.22335 91.056312,108.78184 80.060763,95.271802 74.733462,88.538091 71.153515,82.869843 68.553792,77.116358 c 3.494709,-3.196382 6.733709,-6.520618 9.887472,-9.716998 1.193314,-1.193315 2.38663,-2.42925 3.579945,-3.622565 8.949866,-8.949867 8.949866,-20.542074 0,-29.49194 L 70.386383,22.650029 C 69.065212,21.328858 67.701424,19.96507 66.422871,18.60128 63.865768,15.958939 61.180807,13.23136 58.410611,10.674256 54.276625,6.5828889 49.33289,4.409349 44.133443,4.409349 c -5.199446,0 -10.228418,2.1735399 -14.490259,6.264907 -0.04263,0.04263 -0.04263,0.04263 -0.08523,0.08523 L 15.067688,25.377608 C 9.6125311,30.832765 6.5013869,37.481236 5.8194928,45.195168 4.796651,57.639744 8.4618342,69.231951 11.27465,76.818029 c 6.904182,18.624243 17.217836,35.884701 32.603083,54.381091 18.666864,22.28944 41.126765,39.89084 66.783057,52.2928 9.80222,4.64539 22.88607,10.14317 37.50419,11.08078 0.89498,0.0427 1.8326,0.0852 2.68496,0.0852 9.84485,0 18.11283,-3.53732 24.59083,-10.56935 0.0427,-0.0852 0.12784,-0.12786 0.17047,-0.2131 2.21616,-2.68496 4.77326,-5.11421 7.45823,-7.71392 1.83257,-1.74736 3.70779,-3.57995 5.54038,-5.49778 4.21924,-4.3897 6.43538,-9.50391 6.43538,-14.74599 0,-5.28467 -2.25877,-10.35626 -6.56324,-14.6181 z m 15.25738,44.87717 c -0.0427,0 -0.0427,0.0427 0,0 -1.66211,1.78997 -3.36686,3.40948 -5.19944,5.19945 -2.77021,2.64234 -5.58302,5.41253 -8.22536,8.52369 -4.30445,4.60279 -9.37605,6.77632 -16.02452,6.77632 -0.63927,0 -1.32118,0 -1.96045,-0.0427 -12.65766,-0.80974 -24.42035,-5.75348 -33.24236,-9.97269 C 91.567733,161.50081 70.386383,144.92225 52.78498,123.91138 38.252103,106.3952 28.535105,90.20021 22.099726,72.811897 18.136213,62.199914 16.687187,53.931943 17.326463,46.132774 c 0.426185,-4.986355 2.344013,-9.120341 5.88134,-12.657668 l 14.53288,-14.532878 c 2.0883,-1.960447 4.304458,-3.025908 6.477997,-3.025908 2.68496,0 4.858498,1.6195 6.222287,2.98329 0.04263,0.04263 0.08523,0.08523 0.127856,0.127854 2.599724,2.42925 5.071591,4.943735 7.671313,7.628696 1.321172,1.363789 2.684961,2.727579 4.04875,4.133986 l 11.634825,11.634826 c 4.517553,4.517551 4.517553,8.694155 0,13.211706 -1.235933,1.235934 -2.429248,2.471868 -3.665183,3.665184 -3.579946,3.665183 -6.989418,7.074656 -10.69722,10.398892 -0.08524,0.08523 -0.170475,0.127854 -0.213092,0.213093 -3.665185,3.665182 -2.983289,7.245128 -2.216158,9.674379 0.04263,0.127854 0.08523,0.255709 0.127856,0.383564 3.025906,7.330367 7.287747,14.234555 13.765746,22.45991 l 0.04263,0.0427 c 11.762682,14.49026 24.164638,25.78414 37.84515,34.43568 1.74735,1.10808 3.53732,2.00307 5.24205,2.85543 1.53427,0.76713 2.98328,1.49165 4.21922,2.25877 0.17047,0.0852 0.34096,0.2131 0.51142,0.29834 1.44903,0.72452 2.81282,1.06545 4.21923,1.06545 3.53733,0 5.75349,-2.21615 6.47801,-2.94067 l 14.57548,-14.57554 c 1.44903,-1.44903 3.75043,-3.19638 6.43539,-3.19638 2.64234,0 4.81587,1.66212 6.13705,3.11115 0.0427,0.0427 0.0427,0.0427 0.0852,0.0852 l 23.48275,23.48274 c 4.38969,4.34708 4.38969,8.82202 0.0427,13.33956 z"
   id="path2"
   style="stroke-width:0.426184;stroke:#ffffff;fill:#ffffff" />
<g
   id="g12">
</g>
<g
   id="g14">
</g>
<g
   id="g16">
</g>
<g
   id="g18">
</g>
<g
   id="g20">
</g>
<g
   id="g22">
</g>
<g
   id="g24">
</g>
<g
   id="g26">
</g>
<g
   id="g28">
</g>
<g
   id="g30">
</g>
<g
   id="g32">
</g>
<g
   id="g34">
</g>
<g
   id="g36">
</g>
<g
   id="g38">
</g>
<g
   id="g40">
</g>
</svg>
